<?xml version="1.0" encoding="utf-8"?>
<!-- Generator: Adobe Illustrator 17.1.0, SVG Export Plug-In . SVG Version: 6.00 Build 0)  -->
<!DOCTYPE svg PUBLIC "-//W3C//DTD SVG 1.1//EN" "http://www.w3.org/Graphics/SVG/1.1/DTD/svg11.dtd">
<svg version="1.1" id="beach-bag" xmlns="http://www.w3.org/2000/svg" xmlns:xlink="http://www.w3.org/1999/xlink" x="0px" y="0px"
	 viewBox="0 0 1010 1010" enable-background="new 0 0 1010 1010" xml:space="preserve">
<g>
	<path id="beach-bag-label" fill="#FFFFFF" d="M1010,505c0,278.9111-226.0889,505-505,505C226.0996,1010,0,783.9111,0,505
		C0,226.0996,226.0996,0,505,0C783.9111,0,1010,226.0996,1010,505z"/>
	<g id="beach-bag-beach-bag">
		<g>
			<path fill="#411813" d="M679.8652,770.8047H330.1353c-16.7017,0-31.3438-11.8359-34.8287-28.1436l-58.2148-337.79
				c-1.0195-5.4302,0.4712-11.1401,4.0986-15.5181c3.6494-4.3945,9.0083-6.9096,14.6958-6.9096h498.2162
				c5.6778,0,11.0245,2.5039,14.6631,6.8764c3.6494,4.3677,5.1514,10.0772,4.1211,15.6553l-58.1161,337.2915
				C711.1758,758.9795,696.5342,770.8047,679.8652,770.8047L679.8652,770.8047z M257.2017,402.6411l57.9301,336.2066
				c1.4361,6.6406,7.7701,11.7704,15.0035,11.7704h349.7299c7.2217,0,13.5567-5.1299,15.0801-12.1874l57.8526-335.7896H257.2017
				L257.2017,402.6411z"/>
		</g>
		<g>
			<polygon fill="#411813" points="733.4775,586.7119 648.5215,586.7119 648.5215,566.5029 733.4775,566.5029 733.4775,586.7119 			
				"/>
		</g>
		<g>
			<polygon fill="#411813" points="361.4565,586.7119 277.3335,586.7119 277.3335,566.5029 361.4565,566.5029 361.4565,586.7119 			
				"/>
		</g>
		<g>
			<g>
				<polygon fill="#411813" points="515.1045,697.0928 494.8955,697.0928 494.8955,654.834 515.1045,654.834 515.1045,697.0928 				
					"/>
			</g>
			<g>
				<polygon fill="#411813" points="515.1045,498.4297 494.8955,498.4297 494.8955,456.1489 515.1045,456.1489 515.1045,498.4297 
									"/>
			</g>
			<g>
				<polygon fill="#411813" points="426.7842,586.7344 384.5142,586.7344 384.5142,566.5254 426.7842,566.5254 426.7842,586.7344 
									"/>
			</g>
			<g>
				<polygon fill="#411813" points="625.4746,586.7344 583.2051,586.7344 583.2051,566.5254 625.4746,566.5254 625.4746,586.7344 
									"/>
			</g>
			<g>
				<polygon fill="#411813" points="426.9487,668.9717 412.6689,654.6807 442.5659,624.7842 456.8457,639.0752 426.9487,668.9717 
									"/>
			</g>
			<g>
				<polygon fill="#411813" points="567.4238,528.4746 553.1445,514.1895 583.0518,484.2759 597.332,498.5615 567.4238,528.4746 
									"/>
			</g>
			<g>
				<polygon fill="#411813" points="442.5659,528.4746 412.6689,498.5557 426.9487,484.2759 456.8457,514.1943 442.5659,528.4746 
									"/>
			</g>
			<g>
				<polygon fill="#411813" points="583.0625,668.9717 553.1445,639.0859 567.4131,624.7842 597.332,654.6689 583.0625,668.9717 
									"/>
			</g>
			<g>
				<path fill="#411813" d="M505,630.877c-29.9185,0-54.2695-24.3399-54.2695-54.2471c0-29.9199,24.351-54.249,54.2695-54.249
					c29.9189,0,54.2588,24.3291,54.2588,54.249C559.2588,606.5371,534.9189,630.877,505,630.877L505,630.877z M505,542.5674
					c-18.7837,0-34.0605,15.2783-34.0605,34.0625c0,18.7724,15.2768,34.0381,34.0605,34.0381
					c18.7734,0,34.0498-15.2657,34.0498-34.0381C539.0498,557.8457,523.7734,542.5674,505,542.5674L505,542.5674z"/>
			</g>
		</g>
		<g>
			<path fill="#411813" d="M627.1729,440.6582c-5.5782,0-10.1045-4.5205-10.1045-10.0981v-64.2652
				c0-58.9497-47.9464-106.9072-106.8955-106.9072c-59.837,0-108.5181,48.6914-108.5181,108.5459v62.6265
				c0,5.5776-4.5259,10.0981-10.104,10.0981c-5.5786,0-10.1045-4.5205-10.1045-10.0981v-62.6265
				c0-70.9888,57.7436-128.7437,128.7266-128.7437c70.0839,0,127.1044,57.021,127.1044,127.105v64.2652
				C637.2773,436.1377,632.751,440.6582,627.1729,440.6582L627.1729,440.6582z"/>
		</g>
	</g>
</g>
</svg>
